<mxfile host="Electron" modified="2023-09-11T12:40:45.335Z" agent="Mozilla/5.0 (Windows NT 10.0; Win64; x64) AppleWebKit/537.36 (KHTML, like Gecko) draw.io/21.6.5 Chrome/114.0.5735.243 Electron/25.3.1 Safari/537.36" etag="HrJyotSVe5RIvqRx7JTe" version="21.6.5" type="device">
  <diagram name="Page-1" id="8rji0MJZMKIP9WhoCvuh">
    <mxGraphModel dx="1036" dy="656" grid="1" gridSize="10" guides="1" tooltips="1" connect="1" arrows="1" fold="1" page="1" pageScale="1" pageWidth="827" pageHeight="1169" math="0" shadow="0">
      <root>
        <mxCell id="0" />
        <mxCell id="1" parent="0" />
        <mxCell id="w2yPtdvZUZeBbUUJ6F2G-2" value="EXECUTION AND MONITORING" style="rounded=1;whiteSpace=wrap;html=1;fillColor=#FFEE52;strokeColor=#36393d;gradientDirection=north;" parent="1" vertex="1">
          <mxGeometry x="470" y="440" width="130" height="70" as="geometry" />
        </mxCell>
        <mxCell id="w2yPtdvZUZeBbUUJ6F2G-3" value="CLOSURE" style="whiteSpace=wrap;html=1;rounded=1;fillColor=#FFEE52;strokeColor=#36393d;gradientDirection=north;glass=0;" parent="1" vertex="1">
          <mxGeometry x="670" y="440" width="130" height="70" as="geometry" />
        </mxCell>
        <mxCell id="w2yPtdvZUZeBbUUJ6F2G-7" value="PLANNING" style="whiteSpace=wrap;html=1;rounded=1;fillColor=#FFEE52;strokeColor=#36393d;gradientDirection=north;" parent="1" vertex="1">
          <mxGeometry x="270" y="440" width="130" height="70" as="geometry" />
        </mxCell>
        <mxCell id="w2yPtdvZUZeBbUUJ6F2G-9" value="INNITIATION" style="whiteSpace=wrap;html=1;rounded=1;fillColor=#FFEE52;strokeColor=#36393d;gradientDirection=north;" parent="1" vertex="1">
          <mxGeometry x="70" y="440" width="130" height="70" as="geometry" />
        </mxCell>
        <mxCell id="w2yPtdvZUZeBbUUJ6F2G-11" value="MONGODB TITLE" style="rounded=1;whiteSpace=wrap;html=1;shadow=1;glass=0;labelBackgroundColor=none;labelBorderColor=none;gradientDirection=north;strokeWidth=2;fillColor=#f8cecc;strokeColor=#b85450;gradientColor=#ea6b66;" parent="1" vertex="1">
          <mxGeometry x="300" y="220" width="250" height="120" as="geometry" />
        </mxCell>
        <mxCell id="w2yPtdvZUZeBbUUJ6F2G-12" value="PROJECT &lt;br&gt;CHARTER" style="rounded=1;whiteSpace=wrap;html=1;fillColor=#FFB300;strokeColor=#d79b00;shadow=1;strokeWidth=1;gradientDirection=north;gradientColor=#ffa500;" parent="1" vertex="1">
          <mxGeometry x="40" y="540" width="120" height="60" as="geometry" />
        </mxCell>
        <mxCell id="w2yPtdvZUZeBbUUJ6F2G-13" value="SRS DOCUMENT" style="rounded=1;whiteSpace=wrap;html=1;fillColor=#FFB300;strokeColor=#d79b00;shadow=1;strokeWidth=1;gradientDirection=north;gradientColor=#ffa500;" parent="1" vertex="1">
          <mxGeometry x="40" y="620" width="120" height="60" as="geometry" />
        </mxCell>
        <mxCell id="w2yPtdvZUZeBbUUJ6F2G-14" value="RAID LOGS" style="rounded=1;whiteSpace=wrap;html=1;fillColor=#FFB300;strokeColor=#d79b00;shadow=1;strokeWidth=1;gradientDirection=north;gradientColor=#ffa500;" parent="1" vertex="1">
          <mxGeometry x="240" y="700" width="120" height="60" as="geometry" />
        </mxCell>
        <mxCell id="w2yPtdvZUZeBbUUJ6F2G-15" value="PROJECT SCHEDULE" style="rounded=1;whiteSpace=wrap;html=1;fillColor=#FFB300;strokeColor=#d79b00;shadow=1;strokeWidth=1;gradientDirection=north;gradientColor=#ffa500;" parent="1" vertex="1">
          <mxGeometry x="240" y="620" width="120" height="60" as="geometry" />
        </mxCell>
        <mxCell id="w2yPtdvZUZeBbUUJ6F2G-16" value="WBS" style="rounded=1;whiteSpace=wrap;html=1;fillColor=#FFB300;strokeColor=#d79b00;shadow=1;strokeWidth=1;gradientDirection=north;gradientColor=#ffa500;" parent="1" vertex="1">
          <mxGeometry x="240" y="540" width="120" height="60" as="geometry" />
        </mxCell>
        <mxCell id="w2yPtdvZUZeBbUUJ6F2G-17" style="edgeStyle=orthogonalEdgeStyle;rounded=0;orthogonalLoop=1;jettySize=auto;html=1;exitX=0.5;exitY=1;exitDx=0;exitDy=0;" parent="1" source="w2yPtdvZUZeBbUUJ6F2G-15" target="w2yPtdvZUZeBbUUJ6F2G-15" edge="1">
          <mxGeometry relative="1" as="geometry" />
        </mxCell>
        <mxCell id="w2yPtdvZUZeBbUUJ6F2G-18" value="" style="endArrow=classic;html=1;rounded=0;entryX=1;entryY=0.5;entryDx=0;entryDy=0;" parent="1" edge="1">
          <mxGeometry width="50" height="50" relative="1" as="geometry">
            <mxPoint x="380" y="510" as="sourcePoint" />
            <mxPoint x="360" y="570" as="targetPoint" />
            <Array as="points">
              <mxPoint x="380" y="570" />
            </Array>
          </mxGeometry>
        </mxCell>
        <mxCell id="w2yPtdvZUZeBbUUJ6F2G-19" value="" style="endArrow=classic;html=1;rounded=0;entryX=1;entryY=0.5;entryDx=0;entryDy=0;exitX=0.844;exitY=1.019;exitDx=0;exitDy=0;exitPerimeter=0;" parent="1" source="w2yPtdvZUZeBbUUJ6F2G-9" target="w2yPtdvZUZeBbUUJ6F2G-12" edge="1">
          <mxGeometry width="50" height="50" relative="1" as="geometry">
            <mxPoint x="140" y="530" as="sourcePoint" />
            <mxPoint x="90" y="580" as="targetPoint" />
            <Array as="points">
              <mxPoint x="180" y="570" />
            </Array>
          </mxGeometry>
        </mxCell>
        <mxCell id="w2yPtdvZUZeBbUUJ6F2G-20" value="" style="endArrow=classic;html=1;rounded=0;" parent="1" edge="1">
          <mxGeometry width="50" height="50" relative="1" as="geometry">
            <mxPoint x="581" y="510" as="sourcePoint" />
            <mxPoint x="560" y="570" as="targetPoint" />
            <Array as="points">
              <mxPoint x="581" y="570" />
            </Array>
          </mxGeometry>
        </mxCell>
        <mxCell id="w2yPtdvZUZeBbUUJ6F2G-21" value="" style="endArrow=classic;html=1;rounded=0;exitX=0.849;exitY=1;exitDx=0;exitDy=0;exitPerimeter=0;" parent="1" source="w2yPtdvZUZeBbUUJ6F2G-3" edge="1">
          <mxGeometry width="50" height="50" relative="1" as="geometry">
            <mxPoint x="790" y="510" as="sourcePoint" />
            <mxPoint x="760" y="570" as="targetPoint" />
            <Array as="points">
              <mxPoint x="780" y="570" />
            </Array>
          </mxGeometry>
        </mxCell>
        <mxCell id="w2yPtdvZUZeBbUUJ6F2G-22" value="" style="endArrow=classic;html=1;rounded=0;entryX=1;entryY=0.5;entryDx=0;entryDy=0;" parent="1" edge="1">
          <mxGeometry width="50" height="50" relative="1" as="geometry">
            <mxPoint x="380" y="515" as="sourcePoint" />
            <mxPoint x="360" y="655" as="targetPoint" />
            <Array as="points">
              <mxPoint x="380" y="655" />
            </Array>
          </mxGeometry>
        </mxCell>
        <mxCell id="w2yPtdvZUZeBbUUJ6F2G-28" value="DESIGN" style="rounded=1;whiteSpace=wrap;html=1;fillColor=#D4D4D4;gradientColor=#b3b3b3;gradientDirection=north;shadow=1;strokeWidth=1;strokeColor=#666666;" parent="1" vertex="1">
          <mxGeometry x="445" y="540" width="120" height="60" as="geometry" />
        </mxCell>
        <mxCell id="w2yPtdvZUZeBbUUJ6F2G-29" value="DEPLOY" style="rounded=1;whiteSpace=wrap;html=1;fillColor=#D4D4D4;gradientColor=#b3b3b3;gradientDirection=north;shadow=1;strokeWidth=1;strokeColor=#666666;" parent="1" vertex="1">
          <mxGeometry x="445" y="780" width="120" height="60" as="geometry" />
        </mxCell>
        <mxCell id="w2yPtdvZUZeBbUUJ6F2G-30" value="TEST" style="rounded=1;whiteSpace=wrap;html=1;fillColor=#D4D4D4;gradientColor=#b3b3b3;gradientDirection=north;shadow=1;strokeWidth=1;strokeColor=#666666;" parent="1" vertex="1">
          <mxGeometry x="445" y="700" width="120" height="60" as="geometry" />
        </mxCell>
        <mxCell id="w2yPtdvZUZeBbUUJ6F2G-31" value="DEVELOP" style="rounded=1;whiteSpace=wrap;html=1;fillColor=#D4D4D4;gradientColor=#b3b3b3;gradientDirection=north;shadow=1;strokeWidth=1;strokeColor=#666666;" parent="1" vertex="1">
          <mxGeometry x="445" y="620" width="120" height="60" as="geometry" />
        </mxCell>
        <mxCell id="w2yPtdvZUZeBbUUJ6F2G-32" value="TEST PLAN" style="rounded=1;whiteSpace=wrap;html=1;fillColor=#FFB300;strokeColor=#d79b00;shadow=1;strokeWidth=1;gradientDirection=north;gradientColor=#ffa500;" parent="1" vertex="1">
          <mxGeometry x="210" y="880" width="120" height="60" as="geometry" />
        </mxCell>
        <mxCell id="w2yPtdvZUZeBbUUJ6F2G-33" value="DESIGN SPECIFICATION" style="rounded=1;whiteSpace=wrap;html=1;fillColor=#FFB300;strokeColor=#d79b00;shadow=1;strokeWidth=1;gradientDirection=north;gradientColor=#ffa500;" parent="1" vertex="1">
          <mxGeometry x="70" y="880" width="120" height="60" as="geometry" />
        </mxCell>
        <mxCell id="w2yPtdvZUZeBbUUJ6F2G-34" value="ANALYSE" style="rounded=1;whiteSpace=wrap;html=1;fillColor=#90B7FC;strokeColor=#6c8ebf;shadow=1;gradientDirection=north;strokeWidth=1;glass=0;gradientColor=#7ea6e0;" parent="1" vertex="1">
          <mxGeometry x="240" y="1000" width="90" height="60" as="geometry" />
        </mxCell>
        <mxCell id="w2yPtdvZUZeBbUUJ6F2G-35" value="RESEARCH" style="rounded=1;whiteSpace=wrap;html=1;fillColor=#90B7FC;strokeColor=#6c8ebf;shadow=1;gradientDirection=north;strokeWidth=1;glass=0;gradientColor=#7ea6e0;" parent="1" vertex="1">
          <mxGeometry x="130" y="1000" width="100" height="60" as="geometry" />
        </mxCell>
        <mxCell id="w2yPtdvZUZeBbUUJ6F2G-36" value="DESIGN" style="rounded=1;whiteSpace=wrap;html=1;fillColor=#90B7FC;strokeColor=#6c8ebf;shadow=1;gradientDirection=north;strokeWidth=1;glass=0;gradientColor=#7ea6e0;" parent="1" vertex="1">
          <mxGeometry x="20" y="1000" width="100" height="60" as="geometry" />
        </mxCell>
        <mxCell id="w2yPtdvZUZeBbUUJ6F2G-37" value="LESSON LEARNT &amp;amp; PROJECT REPORT" style="rounded=1;whiteSpace=wrap;html=1;fillColor=#FFB300;strokeColor=#d79b00;shadow=1;strokeWidth=1;gradientDirection=north;gradientColor=#ffa500;" parent="1" vertex="1">
          <mxGeometry x="640" y="540" width="120" height="70" as="geometry" />
        </mxCell>
        <mxCell id="w2yPtdvZUZeBbUUJ6F2G-38" value="SCRIPT" style="rounded=1;whiteSpace=wrap;html=1;fillColor=#FFB300;strokeColor=#d79b00;shadow=1;strokeWidth=1;gradientDirection=north;gradientColor=#ffa500;" parent="1" vertex="1">
          <mxGeometry x="680" y="880" width="120" height="60" as="geometry" />
        </mxCell>
        <mxCell id="w2yPtdvZUZeBbUUJ6F2G-39" value="TEST RESULT" style="rounded=1;whiteSpace=wrap;html=1;fillColor=#FFB300;strokeColor=#d79b00;shadow=1;strokeWidth=1;gradientDirection=north;gradientColor=#ffa500;" parent="1" vertex="1">
          <mxGeometry x="540" y="880" width="120" height="60" as="geometry" />
        </mxCell>
        <mxCell id="w2yPtdvZUZeBbUUJ6F2G-40" value="APP VIDEO &amp;amp; INSTALLATION GUIDE" style="rounded=1;whiteSpace=wrap;html=1;fillColor=#FFB300;strokeColor=#d79b00;shadow=1;strokeWidth=1;gradientDirection=north;gradientColor=#ffa500;" parent="1" vertex="1">
          <mxGeometry x="400" y="880" width="120" height="60" as="geometry" />
        </mxCell>
        <mxCell id="w2yPtdvZUZeBbUUJ6F2G-41" value="" style="edgeStyle=segmentEdgeStyle;endArrow=classic;html=1;curved=0;rounded=0;endSize=8;startSize=8;exitX=0;exitY=0.75;exitDx=0;exitDy=0;" parent="1" source="w2yPtdvZUZeBbUUJ6F2G-28" target="w2yPtdvZUZeBbUUJ6F2G-33" edge="1">
          <mxGeometry width="50" height="50" relative="1" as="geometry">
            <mxPoint x="440" y="570" as="sourcePoint" />
            <mxPoint x="380" y="870" as="targetPoint" />
            <Array as="points">
              <mxPoint x="430" y="585" />
              <mxPoint x="430" y="840" />
              <mxPoint x="180" y="840" />
            </Array>
          </mxGeometry>
        </mxCell>
        <mxCell id="w2yPtdvZUZeBbUUJ6F2G-42" value="" style="edgeStyle=segmentEdgeStyle;endArrow=classic;html=1;curved=0;rounded=0;endSize=8;startSize=8;" parent="1" edge="1">
          <mxGeometry width="50" height="50" relative="1" as="geometry">
            <mxPoint x="430" y="689.96" as="sourcePoint" />
            <mxPoint x="320" y="880" as="targetPoint" />
            <Array as="points">
              <mxPoint x="430" y="840" />
              <mxPoint x="320" y="840" />
              <mxPoint x="320" y="880" />
            </Array>
          </mxGeometry>
        </mxCell>
        <mxCell id="w2yPtdvZUZeBbUUJ6F2G-43" value="" style="edgeStyle=segmentEdgeStyle;endArrow=classic;html=1;curved=0;rounded=0;endSize=8;startSize=8;entryX=0.5;entryY=0;entryDx=0;entryDy=0;" parent="1" target="w2yPtdvZUZeBbUUJ6F2G-34" edge="1">
          <mxGeometry width="50" height="50" relative="1" as="geometry">
            <mxPoint x="130" y="940" as="sourcePoint" />
            <mxPoint x="263.7600000000002" y="1001.44" as="targetPoint" />
            <Array as="points">
              <mxPoint x="130" y="940" />
              <mxPoint x="130" y="970" />
              <mxPoint x="245" y="970" />
            </Array>
          </mxGeometry>
        </mxCell>
        <mxCell id="w2yPtdvZUZeBbUUJ6F2G-44" value="" style="edgeStyle=segmentEdgeStyle;endArrow=classic;html=1;curved=0;rounded=0;endSize=8;startSize=8;" parent="1" source="w2yPtdvZUZeBbUUJ6F2G-33" edge="1">
          <mxGeometry width="50" height="50" relative="1" as="geometry">
            <mxPoint x="370" y="940" as="sourcePoint" />
            <mxPoint x="180" y="1000" as="targetPoint" />
            <Array as="points">
              <mxPoint x="130" y="970" />
              <mxPoint x="180" y="970" />
              <mxPoint x="180" y="1000" />
            </Array>
          </mxGeometry>
        </mxCell>
        <mxCell id="w2yPtdvZUZeBbUUJ6F2G-46" value="" style="endArrow=classic;html=1;rounded=0;entryX=0.5;entryY=0;entryDx=0;entryDy=0;entryPerimeter=0;" parent="1" target="w2yPtdvZUZeBbUUJ6F2G-36" edge="1">
          <mxGeometry width="50" height="50" relative="1" as="geometry">
            <mxPoint x="130" y="940" as="sourcePoint" />
            <mxPoint x="320" y="990" as="targetPoint" />
            <Array as="points">
              <mxPoint x="130" y="960" />
              <mxPoint x="130" y="970" />
              <mxPoint x="120" y="970" />
              <mxPoint x="70" y="970" />
            </Array>
          </mxGeometry>
        </mxCell>
        <mxCell id="w2yPtdvZUZeBbUUJ6F2G-47" value="" style="endArrow=classic;html=1;rounded=0;entryX=0.5;entryY=0;entryDx=0;entryDy=0;exitX=1;exitY=0.75;exitDx=0;exitDy=0;" parent="1" source="w2yPtdvZUZeBbUUJ6F2G-31" edge="1">
          <mxGeometry width="50" height="50" relative="1" as="geometry">
            <mxPoint x="570" y="655" as="sourcePoint" />
            <mxPoint x="785" y="880" as="targetPoint" />
            <Array as="points">
              <mxPoint x="785" y="665" />
            </Array>
          </mxGeometry>
        </mxCell>
        <mxCell id="w2yPtdvZUZeBbUUJ6F2G-48" value="" style="endArrow=classic;html=1;rounded=0;entryX=0.5;entryY=0;entryDx=0;entryDy=0;exitX=1;exitY=0.75;exitDx=0;exitDy=0;" parent="1" source="w2yPtdvZUZeBbUUJ6F2G-30" edge="1">
          <mxGeometry width="50" height="50" relative="1" as="geometry">
            <mxPoint x="570" y="730" as="sourcePoint" />
            <mxPoint x="645" y="880" as="targetPoint" />
            <Array as="points">
              <mxPoint x="645" y="745" />
              <mxPoint x="645" y="840" />
            </Array>
          </mxGeometry>
        </mxCell>
        <mxCell id="w2yPtdvZUZeBbUUJ6F2G-49" value="" style="endArrow=classic;html=1;rounded=0;entryX=0.873;entryY=-0.057;entryDx=0;entryDy=0;exitX=0.5;exitY=1;exitDx=0;exitDy=0;entryPerimeter=0;" parent="1" source="w2yPtdvZUZeBbUUJ6F2G-29" target="w2yPtdvZUZeBbUUJ6F2G-40" edge="1">
          <mxGeometry width="50" height="50" relative="1" as="geometry">
            <mxPoint x="500" y="810" as="sourcePoint" />
            <mxPoint x="550" y="720" as="targetPoint" />
            <Array as="points">
              <mxPoint x="505" y="850" />
            </Array>
          </mxGeometry>
        </mxCell>
        <mxCell id="w2yPtdvZUZeBbUUJ6F2G-50" value="" style="endArrow=classic;html=1;rounded=0;exitX=0.5;exitY=1;exitDx=0;exitDy=0;entryX=0.5;entryY=0;entryDx=0;entryDy=0;entryPerimeter=0;" parent="1" source="w2yPtdvZUZeBbUUJ6F2G-38" target="w2yPtdvZUZeBbUUJ6F2G-51" edge="1">
          <mxGeometry width="50" height="50" relative="1" as="geometry">
            <mxPoint x="710" y="890" as="sourcePoint" />
            <mxPoint x="710" y="1040" as="targetPoint" />
            <Array as="points">
              <mxPoint x="740" y="970" />
              <mxPoint x="760" y="970" />
            </Array>
          </mxGeometry>
        </mxCell>
        <mxCell id="w2yPtdvZUZeBbUUJ6F2G-51" value="CONNECTION STRING" style="rounded=1;whiteSpace=wrap;html=1;fillColor=#90B7FC;strokeColor=#6c8ebf;shadow=1;gradientDirection=north;strokeWidth=1;glass=0;gradientColor=#7ea6e0;" parent="1" vertex="1">
          <mxGeometry x="710" y="1000" width="100" height="60" as="geometry" />
        </mxCell>
        <mxCell id="w2yPtdvZUZeBbUUJ6F2G-52" value="MONGODB BACKUP" style="rounded=1;whiteSpace=wrap;html=1;fillColor=#90B7FC;strokeColor=#6c8ebf;shadow=1;gradientDirection=north;strokeWidth=1;glass=0;gradientColor=#7ea6e0;" parent="1" vertex="1">
          <mxGeometry x="600" y="1000" width="100" height="60" as="geometry" />
        </mxCell>
        <mxCell id="w2yPtdvZUZeBbUUJ6F2G-53" value="CLEAN LOCAL BACKUP" style="rounded=1;whiteSpace=wrap;html=1;fillColor=#90B7FC;strokeColor=#6c8ebf;shadow=1;gradientDirection=north;strokeWidth=1;glass=0;gradientColor=#7ea6e0;" parent="1" vertex="1">
          <mxGeometry x="490" y="1000" width="100" height="60" as="geometry" />
        </mxCell>
        <mxCell id="w2yPtdvZUZeBbUUJ6F2G-54" value="UPLOAD BACKUP TO AWS S3" style="rounded=1;whiteSpace=wrap;html=1;fillColor=#90B7FC;strokeColor=#6c8ebf;shadow=1;gradientDirection=north;strokeWidth=1;glass=0;gradientColor=#7ea6e0;" parent="1" vertex="1">
          <mxGeometry x="380" y="1000" width="100" height="60" as="geometry" />
        </mxCell>
        <mxCell id="w2yPtdvZUZeBbUUJ6F2G-56" value="" style="endArrow=classic;html=1;rounded=0;entryX=0.5;entryY=0;entryDx=0;entryDy=0;" parent="1" target="w2yPtdvZUZeBbUUJ6F2G-52" edge="1">
          <mxGeometry width="50" height="50" relative="1" as="geometry">
            <mxPoint x="740" y="970" as="sourcePoint" />
            <mxPoint x="640" y="1000" as="targetPoint" />
            <Array as="points">
              <mxPoint x="650" y="970" />
            </Array>
          </mxGeometry>
        </mxCell>
        <mxCell id="w2yPtdvZUZeBbUUJ6F2G-57" value="" style="endArrow=classic;html=1;rounded=0;entryX=0.5;entryY=0;entryDx=0;entryDy=0;" parent="1" target="w2yPtdvZUZeBbUUJ6F2G-53" edge="1">
          <mxGeometry width="50" height="50" relative="1" as="geometry">
            <mxPoint x="650" y="970" as="sourcePoint" />
            <mxPoint x="570" y="1000" as="targetPoint" />
            <Array as="points">
              <mxPoint x="540" y="970" />
            </Array>
          </mxGeometry>
        </mxCell>
        <mxCell id="w2yPtdvZUZeBbUUJ6F2G-58" value="" style="endArrow=classic;html=1;rounded=0;entryX=0.5;entryY=0;entryDx=0;entryDy=0;" parent="1" target="w2yPtdvZUZeBbUUJ6F2G-54" edge="1">
          <mxGeometry width="50" height="50" relative="1" as="geometry">
            <mxPoint x="540" y="970" as="sourcePoint" />
            <mxPoint x="440" y="1000" as="targetPoint" />
            <Array as="points">
              <mxPoint x="430" y="970" />
            </Array>
          </mxGeometry>
        </mxCell>
        <mxCell id="w2yPtdvZUZeBbUUJ6F2G-60" value="" style="endArrow=classic;html=1;rounded=0;entryX=1;entryY=0.5;entryDx=0;entryDy=0;" parent="1" edge="1">
          <mxGeometry width="50" height="50" relative="1" as="geometry">
            <mxPoint x="380" y="510" as="sourcePoint" />
            <mxPoint x="360" y="730" as="targetPoint" />
            <Array as="points">
              <mxPoint x="380" y="730" />
            </Array>
          </mxGeometry>
        </mxCell>
        <mxCell id="w2yPtdvZUZeBbUUJ6F2G-61" value="" style="endArrow=classic;html=1;rounded=0;" parent="1" edge="1">
          <mxGeometry width="50" height="50" relative="1" as="geometry">
            <mxPoint x="180" y="570" as="sourcePoint" />
            <mxPoint x="160" y="650" as="targetPoint" />
            <Array as="points">
              <mxPoint x="180" y="620" />
              <mxPoint x="180" y="650" />
            </Array>
          </mxGeometry>
        </mxCell>
        <mxCell id="w2yPtdvZUZeBbUUJ6F2G-62" value="" style="endArrow=classic;html=1;rounded=0;entryX=0.846;entryY=0;entryDx=0;entryDy=0;entryPerimeter=0;" parent="1" target="w2yPtdvZUZeBbUUJ6F2G-2" edge="1">
          <mxGeometry width="50" height="50" relative="1" as="geometry">
            <mxPoint x="410" y="400" as="sourcePoint" />
            <mxPoint x="540" y="440" as="targetPoint" />
            <Array as="points">
              <mxPoint x="580" y="400" />
            </Array>
          </mxGeometry>
        </mxCell>
        <mxCell id="w2yPtdvZUZeBbUUJ6F2G-63" value="" style="endArrow=classic;html=1;rounded=0;entryX=0.846;entryY=0;entryDx=0;entryDy=0;entryPerimeter=0;" parent="1" target="w2yPtdvZUZeBbUUJ6F2G-3" edge="1">
          <mxGeometry width="50" height="50" relative="1" as="geometry">
            <mxPoint x="550" y="400" as="sourcePoint" />
            <mxPoint x="740" y="440" as="targetPoint" />
            <Array as="points">
              <mxPoint x="780" y="400" />
            </Array>
          </mxGeometry>
        </mxCell>
        <mxCell id="w2yPtdvZUZeBbUUJ6F2G-64" value="" style="endArrow=classic;html=1;rounded=0;" parent="1" edge="1">
          <mxGeometry width="50" height="50" relative="1" as="geometry">
            <mxPoint x="380" y="400" as="sourcePoint" />
            <mxPoint x="180" y="438" as="targetPoint" />
            <Array as="points">
              <mxPoint x="180" y="400" />
              <mxPoint x="180" y="420" />
            </Array>
          </mxGeometry>
        </mxCell>
        <mxCell id="w2yPtdvZUZeBbUUJ6F2G-65" value="" style="endArrow=classic;html=1;rounded=0;" parent="1" edge="1">
          <mxGeometry width="50" height="50" relative="1" as="geometry">
            <mxPoint x="423" y="340" as="sourcePoint" />
            <mxPoint x="380" y="440" as="targetPoint" />
            <Array as="points">
              <mxPoint x="423" y="400" />
              <mxPoint x="380" y="400" />
            </Array>
          </mxGeometry>
        </mxCell>
        <mxCell id="w2yPtdvZUZeBbUUJ6F2G-67" value="" style="line;strokeWidth=2;html=1;perimeter=backbonePerimeter;points=[];outlineConnect=0;fillColor=#66FFFF;gradientColor=none;perimeterSpacing=5;" parent="1" vertex="1">
          <mxGeometry x="110" y="160" width="610" height="10" as="geometry" />
        </mxCell>
        <mxCell id="w2yPtdvZUZeBbUUJ6F2G-69" value="&lt;font style=&quot;font-size: 16px;&quot;&gt;WORK BREAKDOWN STRUCTURE –&lt;br&gt;&lt;br&gt;&lt;br&gt;IP23 Live Project Deliverables– &lt;br&gt;&lt;br&gt;Cloud Computing&lt;/font&gt;" style="text;strokeColor=none;align=center;fillColor=none;html=1;verticalAlign=middle;whiteSpace=wrap;rounded=0;" parent="1" vertex="1">
          <mxGeometry x="20" width="780" height="170" as="geometry" />
        </mxCell>
      </root>
    </mxGraphModel>
  </diagram>
</mxfile>
